<mxfile host="app.diagrams.net" modified="2024-02-02T07:19:15.720Z" agent="Mozilla/5.0 (Windows NT 10.0; Win64; x64) AppleWebKit/537.36 (KHTML, like Gecko) Chrome/121.0.0.0 Safari/537.36 Edg/121.0.0.0" etag="WTev24BnCHpW0-eaqa9b" version="22.1.18" type="github">
  <diagram name="第 1 页" id="hYvDhWVxbsfTn-Ez6DlW">
    <mxGraphModel dx="1426" dy="759" grid="1" gridSize="10" guides="1" tooltips="1" connect="1" arrows="1" fold="1" page="1" pageScale="1" pageWidth="827" pageHeight="1169" math="0" shadow="0">
      <root>
        <mxCell id="0" />
        <mxCell id="1" parent="0" />
        <mxCell id="e3TOGBoLspZ7OObCWNy2-5" value="" style="rounded=0;whiteSpace=wrap;html=1;fillColor=#dae8fc;strokeColor=#6c8ebf;" vertex="1" parent="1">
          <mxGeometry x="40" y="120" width="720" height="160" as="geometry" />
        </mxCell>
        <mxCell id="e3TOGBoLspZ7OObCWNy2-1" value="" style="rounded=0;whiteSpace=wrap;html=1;fillColor=#d5e8d4;strokeColor=#82b366;" vertex="1" parent="1">
          <mxGeometry x="40" y="40" width="720" height="60" as="geometry" />
        </mxCell>
        <mxCell id="e3TOGBoLspZ7OObCWNy2-2" value="业务展示" style="text;html=1;strokeColor=none;fillColor=none;align=center;verticalAlign=middle;whiteSpace=wrap;rounded=0;fontSize=16;fontStyle=1;spacingLeft=10;spacingRight=10;" vertex="1" parent="1">
          <mxGeometry x="40" y="40" width="60" height="60" as="geometry" />
        </mxCell>
        <mxCell id="e3TOGBoLspZ7OObCWNy2-3" value="门户网站" style="rounded=1;whiteSpace=wrap;html=1;fontSize=14;fillColor=#dae8fc;strokeColor=#6c8ebf;gradientColor=#7ea6e0;" vertex="1" parent="1">
          <mxGeometry x="160" y="50" width="140" height="40" as="geometry" />
        </mxCell>
        <mxCell id="e3TOGBoLspZ7OObCWNy2-4" value="业务应用" style="text;html=1;strokeColor=none;fillColor=none;align=center;verticalAlign=middle;whiteSpace=wrap;rounded=0;fontSize=16;fontStyle=1;spacingLeft=10;spacingRight=10;" vertex="1" parent="1">
          <mxGeometry x="40" y="170" width="60" height="60" as="geometry" />
        </mxCell>
        <mxCell id="e3TOGBoLspZ7OObCWNy2-6" value="" style="rounded=0;whiteSpace=wrap;html=1;dashed=1;fillColor=none;" vertex="1" parent="1">
          <mxGeometry x="100" y="140" width="420" height="120" as="geometry" />
        </mxCell>
        <mxCell id="e3TOGBoLspZ7OObCWNy2-7" value="" style="rounded=0;whiteSpace=wrap;html=1;dashed=1;fillColor=none;" vertex="1" parent="1">
          <mxGeometry x="540" y="140" width="200" height="120" as="geometry" />
        </mxCell>
        <mxCell id="e3TOGBoLspZ7OObCWNy2-8" value="管理端" style="rounded=1;whiteSpace=wrap;html=1;fontSize=14;fillColor=#dae8fc;strokeColor=#6c8ebf;gradientColor=#7ea6e0;" vertex="1" parent="1">
          <mxGeometry x="360" y="50" width="140" height="40" as="geometry" />
        </mxCell>
        <mxCell id="e3TOGBoLspZ7OObCWNy2-9" value="企业端" style="rounded=1;whiteSpace=wrap;html=1;fontSize=14;fillColor=#dae8fc;strokeColor=#6c8ebf;gradientColor=#7ea6e0;" vertex="1" parent="1">
          <mxGeometry x="560" y="50" width="140" height="40" as="geometry" />
        </mxCell>
        <mxCell id="e3TOGBoLspZ7OObCWNy2-11" value="消息中心" style="rounded=1;whiteSpace=wrap;html=1;fontSize=14;fillColor=#d5e8d4;strokeColor=#82b366;gradientColor=#97d077;" vertex="1" parent="1">
          <mxGeometry x="160" y="152.5" width="100" height="40" as="geometry" />
        </mxCell>
        <mxCell id="e3TOGBoLspZ7OObCWNy2-12" value="运营数据" style="rounded=1;whiteSpace=wrap;html=1;fontSize=14;fillColor=#d5e8d4;strokeColor=#82b366;gradientColor=#97d077;" vertex="1" parent="1">
          <mxGeometry x="280" y="152.5" width="100" height="40" as="geometry" />
        </mxCell>
        <mxCell id="e3TOGBoLspZ7OObCWNy2-13" value="备案信息" style="rounded=1;whiteSpace=wrap;html=1;fontSize=14;fillColor=#d5e8d4;strokeColor=#82b366;gradientColor=#97d077;" vertex="1" parent="1">
          <mxGeometry x="400" y="152.5" width="100" height="40" as="geometry" />
        </mxCell>
        <mxCell id="e3TOGBoLspZ7OObCWNy2-14" value="建桩报备" style="rounded=1;whiteSpace=wrap;html=1;fontSize=14;fillColor=#d5e8d4;strokeColor=#82b366;gradientColor=#97d077;" vertex="1" parent="1">
          <mxGeometry x="400" y="207.5" width="100" height="40" as="geometry" />
        </mxCell>
        <mxCell id="e3TOGBoLspZ7OObCWNy2-15" value="补贴管理" style="rounded=1;whiteSpace=wrap;html=1;fontSize=14;fillColor=#d5e8d4;strokeColor=#82b366;gradientColor=#97d077;" vertex="1" parent="1">
          <mxGeometry x="280" y="207.5" width="100" height="40" as="geometry" />
        </mxCell>
        <mxCell id="e3TOGBoLspZ7OObCWNy2-16" value="接入管理" style="rounded=1;whiteSpace=wrap;html=1;fontSize=14;fillColor=#d5e8d4;strokeColor=#82b366;gradientColor=#97d077;" vertex="1" parent="1">
          <mxGeometry x="160" y="207.5" width="100" height="40" as="geometry" />
        </mxCell>
        <mxCell id="e3TOGBoLspZ7OObCWNy2-17" value="运营商管理" style="rounded=1;whiteSpace=wrap;html=1;fontSize=14;fillColor=#e6d0de;strokeColor=#996185;gradientColor=#d5739d;" vertex="1" parent="1">
          <mxGeometry x="600" y="152.5" width="120" height="40" as="geometry" />
        </mxCell>
        <mxCell id="e3TOGBoLspZ7OObCWNy2-18" value="补贴管理" style="rounded=1;whiteSpace=wrap;html=1;fontSize=14;fillColor=#e6d0de;strokeColor=#996185;gradientColor=#d5739d;" vertex="1" parent="1">
          <mxGeometry x="600" y="207.5" width="120" height="40" as="geometry" />
        </mxCell>
        <mxCell id="e3TOGBoLspZ7OObCWNy2-19" value="运营商服务" style="text;html=1;strokeColor=none;fillColor=none;align=center;verticalAlign=middle;whiteSpace=wrap;rounded=0;fontSize=16;fontStyle=0;spacingLeft=10;spacingRight=10;" vertex="1" parent="1">
          <mxGeometry x="100" y="170" width="60" height="60" as="geometry" />
        </mxCell>
        <mxCell id="e3TOGBoLspZ7OObCWNy2-20" value="运营监管" style="text;html=1;strokeColor=none;fillColor=none;align=center;verticalAlign=middle;whiteSpace=wrap;rounded=0;fontSize=16;fontStyle=0;spacingLeft=10;spacingRight=10;" vertex="1" parent="1">
          <mxGeometry x="540" y="170" width="60" height="60" as="geometry" />
        </mxCell>
        <mxCell id="e3TOGBoLspZ7OObCWNy2-21" value="" style="rounded=0;whiteSpace=wrap;html=1;fillColor=#e1d5e7;strokeColor=#9673a6;" vertex="1" parent="1">
          <mxGeometry x="40" y="300" width="720" height="140" as="geometry" />
        </mxCell>
        <mxCell id="e3TOGBoLspZ7OObCWNy2-22" value="数据储存" style="text;html=1;strokeColor=none;fillColor=none;align=center;verticalAlign=middle;whiteSpace=wrap;rounded=0;fontSize=16;fontStyle=1;spacingLeft=10;spacingRight=10;" vertex="1" parent="1">
          <mxGeometry x="40" y="340" width="60" height="60" as="geometry" />
        </mxCell>
        <mxCell id="e3TOGBoLspZ7OObCWNy2-23" value="关系型数据库" style="rounded=1;whiteSpace=wrap;html=1;fontSize=14;fillColor=#fff2cc;strokeColor=#d6b656;gradientColor=#ffd966;" vertex="1" parent="1">
          <mxGeometry x="100" y="320" width="140" height="40" as="geometry" />
        </mxCell>
        <mxCell id="e3TOGBoLspZ7OObCWNy2-24" value="时序数据库" style="rounded=1;whiteSpace=wrap;html=1;fontSize=14;fillColor=#fff2cc;strokeColor=#d6b656;gradientColor=#ffd966;" vertex="1" parent="1">
          <mxGeometry x="267" y="320" width="140" height="40" as="geometry" />
        </mxCell>
        <mxCell id="e3TOGBoLspZ7OObCWNy2-25" value="分布式缓存" style="rounded=1;whiteSpace=wrap;html=1;fontSize=14;fillColor=#fff2cc;strokeColor=#d6b656;gradientColor=#ffd966;" vertex="1" parent="1">
          <mxGeometry x="433" y="320" width="140" height="40" as="geometry" />
        </mxCell>
        <mxCell id="e3TOGBoLspZ7OObCWNy2-26" value="主题数据库" style="rounded=1;whiteSpace=wrap;html=1;fontSize=14;fillColor=#fff2cc;strokeColor=#d6b656;gradientColor=#ffd966;" vertex="1" parent="1">
          <mxGeometry x="600" y="320" width="140" height="40" as="geometry" />
        </mxCell>
        <mxCell id="e3TOGBoLspZ7OObCWNy2-27" value="多维建模" style="rounded=1;whiteSpace=wrap;html=1;fontSize=14;fillColor=#fff2cc;strokeColor=#d6b656;gradientColor=#ffd966;" vertex="1" parent="1">
          <mxGeometry x="100" y="380" width="140" height="40" as="geometry" />
        </mxCell>
        <mxCell id="e3TOGBoLspZ7OObCWNy2-28" value="分布式文件" style="rounded=1;whiteSpace=wrap;html=1;fontSize=14;fillColor=#fff2cc;strokeColor=#d6b656;gradientColor=#ffd966;" vertex="1" parent="1">
          <mxGeometry x="267" y="380" width="140" height="40" as="geometry" />
        </mxCell>
        <mxCell id="e3TOGBoLspZ7OObCWNy2-29" value="消息中间件" style="rounded=1;whiteSpace=wrap;html=1;fontSize=14;fillColor=#fff2cc;strokeColor=#d6b656;gradientColor=#ffd966;" vertex="1" parent="1">
          <mxGeometry x="433" y="380" width="140" height="40" as="geometry" />
        </mxCell>
        <mxCell id="e3TOGBoLspZ7OObCWNy2-30" value="分布式存储" style="rounded=1;whiteSpace=wrap;html=1;fontSize=14;fillColor=#fff2cc;strokeColor=#d6b656;gradientColor=#ffd966;" vertex="1" parent="1">
          <mxGeometry x="600" y="380" width="140" height="40" as="geometry" />
        </mxCell>
        <mxCell id="e3TOGBoLspZ7OObCWNy2-31" value="" style="rounded=0;whiteSpace=wrap;html=1;fillColor=#ffe6cc;strokeColor=#d79b00;" vertex="1" parent="1">
          <mxGeometry x="40" y="460" width="720" height="60" as="geometry" />
        </mxCell>
        <mxCell id="e3TOGBoLspZ7OObCWNy2-32" value="数据分析" style="text;html=1;strokeColor=none;fillColor=none;align=center;verticalAlign=middle;whiteSpace=wrap;rounded=0;fontSize=16;fontStyle=1;spacingLeft=10;spacingRight=10;" vertex="1" parent="1">
          <mxGeometry x="40" y="460" width="60" height="60" as="geometry" />
        </mxCell>
        <mxCell id="e3TOGBoLspZ7OObCWNy2-33" value="模型管理" style="rounded=1;whiteSpace=wrap;html=1;fontSize=14;fillColor=#f8cecc;strokeColor=#b85450;gradientColor=#ea6b66;" vertex="1" parent="1">
          <mxGeometry x="160" y="470" width="140" height="40" as="geometry" />
        </mxCell>
        <mxCell id="e3TOGBoLspZ7OObCWNy2-34" value="智能治理" style="rounded=1;whiteSpace=wrap;html=1;fontSize=14;fillColor=#f8cecc;strokeColor=#b85450;gradientColor=#ea6b66;" vertex="1" parent="1">
          <mxGeometry x="360" y="470" width="140" height="40" as="geometry" />
        </mxCell>
        <mxCell id="e3TOGBoLspZ7OObCWNy2-35" value="数据共享" style="rounded=1;whiteSpace=wrap;html=1;fontSize=14;fillColor=#f8cecc;strokeColor=#b85450;gradientColor=#ea6b66;" vertex="1" parent="1">
          <mxGeometry x="560" y="470" width="140" height="40" as="geometry" />
        </mxCell>
        <mxCell id="e3TOGBoLspZ7OObCWNy2-36" value="" style="rounded=0;whiteSpace=wrap;html=1;fillColor=#fff2cc;strokeColor=#d6b656;" vertex="1" parent="1">
          <mxGeometry x="40" y="540" width="720" height="60" as="geometry" />
        </mxCell>
        <mxCell id="e3TOGBoLspZ7OObCWNy2-37" value="数据ETL" style="text;html=1;strokeColor=none;fillColor=none;align=center;verticalAlign=middle;whiteSpace=wrap;rounded=0;fontSize=16;fontStyle=1;spacingLeft=10;spacingRight=10;" vertex="1" parent="1">
          <mxGeometry x="40" y="540" width="60" height="60" as="geometry" />
        </mxCell>
        <mxCell id="e3TOGBoLspZ7OObCWNy2-41" value="数据清洗" style="rounded=1;whiteSpace=wrap;html=1;fontSize=14;fillColor=#ffcd28;strokeColor=#d79b00;gradientColor=#ffa500;" vertex="1" parent="1">
          <mxGeometry x="100" y="550" width="140" height="40" as="geometry" />
        </mxCell>
        <mxCell id="e3TOGBoLspZ7OObCWNy2-42" value="数据标注" style="rounded=1;whiteSpace=wrap;html=1;fontSize=14;fillColor=#ffcd28;strokeColor=#d79b00;gradientColor=#ffa500;" vertex="1" parent="1">
          <mxGeometry x="267" y="550" width="140" height="40" as="geometry" />
        </mxCell>
        <mxCell id="e3TOGBoLspZ7OObCWNy2-43" value="数据标准化" style="rounded=1;whiteSpace=wrap;html=1;fontSize=14;fillColor=#ffcd28;strokeColor=#d79b00;gradientColor=#ffa500;" vertex="1" parent="1">
          <mxGeometry x="433" y="550" width="140" height="40" as="geometry" />
        </mxCell>
        <mxCell id="e3TOGBoLspZ7OObCWNy2-44" value="数据转存" style="rounded=1;whiteSpace=wrap;html=1;fontSize=14;fillColor=#ffcd28;strokeColor=#d79b00;gradientColor=#ffa500;" vertex="1" parent="1">
          <mxGeometry x="600" y="550" width="140" height="40" as="geometry" />
        </mxCell>
      </root>
    </mxGraphModel>
  </diagram>
</mxfile>
